<svg id="图层_1" data-name="图层 1" xmlns="http://www.w3.org/2000/svg" viewBox="0 0 291.69 51.33" fill="#FFFFFF">
	<path d="M84.56,253.38,99,203.45h10.2l14.41,49.93H116.2L104.38,209.5h-.63L91.94,253.38Zm6.68-12.17v-6.68h25.31v6.68Z" transform="translate(-84.56 -202.75)"/>
	<path d="M144.53,254.08a43.54,43.54,0,0,1-8-.69,31.6,31.6,0,0,1-6.87-2l.91-7.1a47.56,47.56,0,0,0,7.47,2.51,30.34,30.34,0,0,0,7,.86c3.28,0,5.71-.57,7.31-1.72a6,6,0,0,0,2.39-5.24c0-3-1.53-5.16-4.57-6.54l-8.65-3.94a21.47,21.47,0,0,1-7.82-5.59,12.23,12.23,0,0,1-2.73-8.12q0-6.54,3.94-10.12t11.15-3.59a24.69,24.69,0,0,1,8.89,1.48,23.07,23.07,0,0,1,7.45,4.81l-4.92,5a24.44,24.44,0,0,0-5.78-3.68,14.25,14.25,0,0,0-5.61-1.14,8.26,8.26,0,0,0-5.61,1.74,6.5,6.5,0,0,0-2,5.15,5.84,5.84,0,0,0,1.3,3.95,11.2,11.2,0,0,0,3.83,2.73l7.31,3.44a25.54,25.54,0,0,1,8.44,5.88,12.24,12.24,0,0,1,2.88,8.4q0,6.78-4.41,10.18T144.53,254.08Z" transform="translate(-84.56 -202.75)"/>
	<path d="M170.16,210.13v-6.68h36.56v6.68Zm14.77,43.25V203.45h7v49.93Z" transform="translate(-84.56 -202.75)"/>
	<path d="M211.12,253.38l14.41-49.93h10.2l14.41,49.93h-7.38L231,209.5h-.64L218.5,253.38Zm6.68-12.17v-6.68h25.31v6.68Z" transform="translate(-84.56 -202.75)"/>
	<path d="M254.54,210.13v-6.68H291.1v6.68Zm14.76,43.25V203.45h7v49.93Z" transform="translate(-84.56 -202.75)"/>
	<path d="M315,254.08q-18.43,0-18.43-25.31,0-26,18.43-26t18.42,26Q333.43,254.08,315,254.08Zm0-6.47q11,0,11-18.84,0-19.54-11-19.55t-11,19.55Q304,247.61,315,247.61Z" transform="translate(-84.56 -202.75)"/>
	<path d="M341,253.38V203.45h7v49.93Zm6.54-19v-6.68h10.62a9.13,9.13,0,0,0,6.52-2.21,8.17,8.17,0,0,0,2.34-6.23q0-4.4-2.34-6.76a8.71,8.71,0,0,0-6.52-2.38H347.7l-.84-6.68h11.32q7.77,0,12,3.94t4.24,11.18q0,7.53-4.24,11.67t-12,4.15Zm20.25,19-11.18-23.49h7.74l11.88,23.49Z" transform="translate(-84.56 -202.75)"/>
</svg>