<?xml version="1.0" encoding="UTF-8"?>
<svg class="icon" width="48" height="48" p-id="1187" t="1645968082650" version="1.1" viewBox="0 0 1024 1024" xmlns="http://www.w3.org/2000/svg">
 <path d="M659.72 64.19H270.4c-78.06 0-141.33 63.28-141.33 141.33v612.95c0 78.06 63.28 141.33 141.33 141.33h485.49c78.06 0 141.33-63.28 141.33-141.33V301.69c0-31.83-12.64-62.35-35.15-84.85l-117.5-117.5a120.017 120.017 0 0 0-84.85-35.15z" fill="#53B7F4" p-id="1188"/>
 <path d="m862.07 216.84-117.5-117.5a120 120 0 0 0-61.75-32.9v131.88c0 41.87 33.94 75.81 75.81 75.81h135.37a119.98 119.98 0 0 0-31.93-57.29zm-451.1 191.12c-9.37-9.37-24.57-9.37-33.94 0l-102.06 102.05c-9.37 9.37-9.37 24.57 0 33.94l102.05 102.05a23.919 23.919 0 0 0 16.97 7.03c6.14 0 12.29-2.34 16.97-7.03 9.37-9.37 9.37-24.57 0-33.94l-85.08-85.08 85.08-85.08c9.38-9.37 9.38-24.57 0.01-33.94zm238.28 0c-9.37-9.37-24.57-9.37-33.94 0s-9.37 24.57 0 33.94l85.08 85.08-85.08 85.08c-9.37 9.37-9.37 24.57 0 33.94 4.69 4.69 10.83 7.03 16.97 7.03s12.28-2.34 16.97-7.03l102.05-102.05c9.37-9.37 9.37-24.57 0-33.94l-102.05-102.05zm-82.91-47.46c-12.64-3.99-26.12 3.02-30.11 15.66l-91.94 291.23c-3.99 12.64 3.02 26.12 15.66 30.11 2.4 0.76 4.84 1.12 7.23 1.12 10.19 0 19.65-6.55 22.88-16.78l91.94-291.23c3.99-12.64-3.02-26.12-15.66-30.11z" fill="#29A3D3" p-id="1189"/>
 <path d="m410.97 395.96c-9.37-9.37-24.57-9.37-33.94 0l-102.06 102.05c-9.37 9.37-9.37 24.57 0 33.94l102.05 102.05a23.919 23.919 0 0 0 16.97 7.03c6.14 0 12.29-2.34 16.97-7.03 9.37-9.37 9.37-24.57 0-33.94l-85.08-85.08 85.08-85.08c9.38-9.37 9.38-24.57 0.01-33.94zm340.34 102.05-102.06-102.05c-9.37-9.37-24.57-9.37-33.94 0s-9.37 24.57 0 33.94l85.08 85.08-85.08 85.08c-9.37 9.37-9.37 24.57 0 33.94 4.69 4.69 10.83 7.03 16.97 7.03s12.28-2.34 16.97-7.03l102.05-102.05c9.38-9.37 9.38-24.56 0.01-33.94zm-184.97-149.51c-12.64-3.99-26.12 3.02-30.11 15.66l-91.94 291.23c-3.99 12.64 3.02 26.12 15.66 30.11 2.4 0.76 4.84 1.12 7.23 1.12 10.19 0 19.65-6.55 22.88-16.78l91.94-291.23c3.99-12.64-3.02-26.12-15.66-30.11z" fill="#fff" p-id="1190"/>
</svg>
