<?xml version="1.0" encoding="UTF-8"?>
<svg class="icon" width="48" height="48" p-id="1620" t="1645968118966" version="1.1" viewBox="0 0 1024 1024" xmlns="http://www.w3.org/2000/svg">
 <path d="M659.72 64.19H270.4c-78.06 0-141.33 63.28-141.33 141.33v612.95c0 78.06 63.28 141.33 141.33 141.33h485.49c78.06 0 141.33-63.28 141.33-141.33V301.69c0-31.83-12.64-62.35-35.15-84.85l-117.5-117.5a120.017 120.017 0 0 0-84.85-35.15z" fill="#C7DADD" p-id="1621"/>
 <path d="m862.07 216.84-117.5-117.5a120 120 0 0 0-61.75-32.9v131.88c0 41.87 33.94 75.81 75.81 75.81h135.37a119.98 119.98 0 0 0-31.93-57.29zm-349.54 79.08c-82.1 0-148.9 66.8-148.9 148.9 0 12.53 10.15 22.68 22.68 22.68s22.68-10.15 22.68-22.68c0-57.09 46.45-103.54 103.54-103.54 27.63 0 53.62 10.78 73.19 30.35s30.35 45.57 30.35 73.19c0 21.11-6.31 41.41-18.24 58.71-11.68 16.92-27.89 29.89-46.9 37.48-37.11 14.83-61.08 49.9-61.08 89.33v1.66c0 12.53 10.15 22.68 22.68 22.68s22.68-10.15 22.68-22.68v-1.66c0-20.78 12.78-39.31 32.56-47.21 27.33-10.92 50.63-29.54 67.4-53.84 17.18-24.9 26.26-54.11 26.26-84.47 0-39.74-15.5-77.13-43.64-105.27-28.13-28.13-65.52-43.63-105.26-43.63z" fill="#9DC0C9" p-id="1622"/>
 <path d="m500.97 750.26a30.24 30.24 0 1 0 23.145-55.876 30.24 30.24 0 1 0-23.145 55.876z" fill="#9DC0C9" p-id="1623"/>
 <path d="m618.4 327.31c-28.14-28.14-65.52-43.64-105.26-43.64-82.1 0-148.9 66.8-148.9 148.9 0 12.53 10.15 22.68 22.68 22.68s22.68-10.15 22.68-22.68c0-57.09 46.45-103.54 103.54-103.54 27.63 0 53.62 10.78 73.19 30.35s30.35 45.57 30.35 73.19c0 21.11-6.31 41.41-18.24 58.71-11.68 16.92-27.89 29.89-46.9 37.48-37.11 14.83-61.08 49.9-61.08 89.33v1.66c0 12.53 10.15 22.68 22.68 22.68s22.68-10.15 22.68-22.68v-1.66c0-20.78 12.78-39.31 32.56-47.21 27.33-10.92 50.63-29.54 67.4-53.84 17.18-24.9 26.26-54.11 26.26-84.47 0-39.74-15.5-77.12-43.64-105.26z" fill="#fff" p-id="1624"/>
 <path d="m513.14 710.09m-30.24 0a30.24 30.24 0 1 0 60.48 0 30.24 30.24 0 1 0-60.48 0z" fill="#fff" p-id="1625"/>
</svg>
