<?xml version="1.0" encoding="UTF-8"?>
<svg class="icon" width="48" height="48" p-id="1332" t="1645968091671" version="1.1" viewBox="0 0 1024 1024" xmlns="http://www.w3.org/2000/svg">
 <path d="M659.72 64.19H270.4c-78.06 0-141.33 63.28-141.33 141.33v612.95c0 78.06 63.28 141.33 141.33 141.33h485.49c78.06 0 141.33-63.28 141.33-141.33V301.69c0-31.83-12.64-62.35-35.15-84.85l-117.5-117.5a120.017 120.017 0 0 0-84.85-35.15z" fill="#4FD397" p-id="1333"/>
 <path d="m862.07 216.84-117.5-117.5a120 120 0 0 0-61.75-32.9v131.88c0 41.87 33.94 75.81 75.81 75.81h135.37a119.98 119.98 0 0 0-31.93-57.29zm-191.82 165.04h-152.28a24.052 24.052 0 0 0-9.66 0h-152.28c-13.25 0-24 10.75-24 24s10.75 24 24 24h133.11v258.73c0 13.25 10.75 24 24 24s24-10.75 24-24v-258.73h133.11c13.25 0 24-10.75 24-24s-10.75-24-24-24z" fill="#19BC6E" p-id="1334"/>
 <path d="M670.25 369.88H517.97a24.052 24.052 0 0 0-9.66 0H356.03c-13.25 0-24 10.75-24 24s10.75 24 24 24h133.11v258.73c0 13.25 10.75 24 24 24s24-10.75 24-24V417.88h133.11c13.25 0 24-10.75 24-24s-10.75-24-24-24z" fill="#fff" p-id="1335"/>
</svg>
