<?xml version="1.0" encoding="UTF-8"?>
<svg class="icon" width="48" height="48" p-id="1040" t="1645968073169" version="1.1" viewBox="0 0 1024 1024" xmlns="http://www.w3.org/2000/svg">
 <path d="m788.14 928.23h-550c-77.32 0-140-62.68-140-140v-550c0-77.32 62.68-140 140-140h550c77.32 0 140 62.68 140 140v550c0 77.32-62.68 140-140 140z" fill="#FFC757" p-id="1041"/>
 <path d="M770.19 644.92l-67.56-117.01c-15.4-26.68-53.91-26.68-69.31 0l-64.01 110.88L450.3 432.65c-15.4-26.67-53.89-26.67-69.29 0L258.45 644.94c-15.4 26.67 3.85 60.01 34.65 60.01h442.44c30.8-0.01 50.05-33.35 34.65-60.03z" fill="#EF9F2B" p-id="1042"/>
 <path d="m595.1 388.21a55.27 55.27 0 1 0 100.66-45.677 55.27 55.27 0 1 0-100.66 45.677z" fill="#EF9F2B" p-id="1043"/>
 <path d="M770.19 632.92l-67.56-117.01c-15.4-26.68-53.91-26.68-69.31 0l-64.01 110.88L450.3 420.65c-15.4-26.67-53.89-26.67-69.29 0L258.45 632.94c-15.4 26.67 3.85 60.01 34.65 60.01h442.44c30.8-0.01 50.05-33.35 34.65-60.03z" fill="#fff" p-id="1044"/>
 <path d="m595.1 376.21a55.27 55.27 0 1 0 100.66-45.677 55.27 55.27 0 1 0-100.66 45.677z" fill="#fff" p-id="1045"/>
</svg>
