<?xml version="1.0" encoding="UTF-8" standalone="no"?>
<svg
   width="48"
   height="48"
   viewBox="0 0 48 48"
   fill="none"
   version="1.1"
   id="svg16"
   sodipodi:docname="保存_save.svg"
   inkscape:version="1.1.1 (3bf5ae0d25, 2021-09-20)"
   xmlns:inkscape="http://www.inkscape.org/namespaces/inkscape"
   xmlns:sodipodi="http://sodipodi.sourceforge.net/DTD/sodipodi-0.dtd"
   xmlns="http://www.w3.org/2000/svg"
   xmlns:svg="http://www.w3.org/2000/svg">
  <defs
     id="defs20" />
  <sodipodi:namedview
     id="namedview18"
     pagecolor="#ffffff"
     bordercolor="#666666"
     borderopacity="1.0"
     inkscape:pageshadow="2"
     inkscape:pageopacity="0.0"
     inkscape:pagecheckerboard="0"
     showgrid="false"
     inkscape:zoom="8.5729167"
     inkscape:cx="9.9732685"
     inkscape:cy="30.561361"
     inkscape:window-width="1920"
     inkscape:window-height="1009"
     inkscape:window-x="-8"
     inkscape:window-y="-8"
     inkscape:window-maximized="1"
     inkscape:current-layer="svg16" />
  <rect
     width="48"
     height="48"
     fill="white"
     fill-opacity="0.01"
     id="rect2" />
  <path
     d="m 8.47495,8.9131422 c 0,-1.666444 1.1584708,-3.0173716 2.587509,-3.0173716 h 21.80528 L 39.525054,13.144 v 25.942858 c 0,1.666494 -1.158428,3.017371 -2.587508,3.017371 H 11.062459 c -1.4290382,0 -2.587509,-1.350877 -2.587509,-3.017371 z"
     fill="#2f88ff"
     stroke="#333333"
     stroke-width="2.9499"
     stroke-linejoin="bevel"
     id="path4" />
  <path
     fill-rule="evenodd"
     clip-rule="evenodd"
     d="M24.0083 6L24 13.3846C24 13.7245 23.5523 14 23 14H15C14.4477 14 14 13.7245 14 13.3846L14 6"
     fill="#43CCF8"
     id="path6" />
  <path
     d="M24.0083 6L24 13.3846C24 13.7245 23.5523 14 23 14H15C14.4477 14 14 13.7245 14 13.3846L14 6H24.0083Z"
     stroke="#FFF"
     stroke-width="3"
     stroke-linejoin="bevel"
     id="path8" />
  <path
     d="M 11,6 H 33"
     stroke="#333333"
     stroke-width="2.85561"
     stroke-linecap="butt"
     stroke-linejoin="bevel"
     id="path10" />
  <path
     d="M14 26H34"
     stroke="#FFF"
     stroke-width="3"
     stroke-linecap="butt"
     stroke-linejoin="bevel"
     id="path12" />
  <path
     d="M14 34H24.0083"
     stroke="#FFF"
     stroke-width="3"
     stroke-linecap="butt"
     stroke-linejoin="bevel"
     id="path14" />
</svg>
